<?xml version="1.0" standalone="no"?>
<!DOCTYPE svg PUBLIC "-//W3C//DTD SVG 20010904//EN"
 "http://www.w3.org/TR/2001/REC-SVG-20010904/DTD/svg10.dtd">
<svg version="1.0" xmlns="http://www.w3.org/2000/svg"
 width="70.000000pt" height="70.000000pt" viewBox="0 0 70.000000 70.000000"
 preserveAspectRatio="xMidYMid meet">
<metadata>
Created by potrace 1.11, written by Peter Selinger 2001-2013
</metadata>
<g transform="translate(0.000000,70.000000) scale(0.100000,-0.100000)"
fill="#000000" stroke="none">
<path d="M0 682 c0 -21 69 -62 103 -62 12 0 32 -8 45 -18 l23 -18 -26 -24
c-37 -34 -55 -83 -55 -144 0 -46 -4 -56 -35 -86 -28 -27 -35 -42 -35 -72 0
-21 -4 -38 -10 -38 -6 0 -10 -43 -10 -110 l0 -110 30 0 c20 0 30 5 30 15 0 21
19 54 54 93 41 44 85 45 105 1 10 -24 11 -36 2 -55 -15 -34 -14 -54 4 -54 8 0
15 6 15 14 0 7 7 19 15 26 17 14 21 70 5 70 -5 0 -10 5 -10 10 0 16 66 12 80
-5 18 -22 127 -21 152 2 18 16 20 15 44 -8 13 -14 26 -38 27 -55 2 -25 -2 -29
-25 -32 -16 -2 -28 -8 -28 -13 0 -5 41 -9 90 -9 53 0 90 4 90 10 0 6 -4 10
-10 10 -5 0 -10 8 -10 18 0 9 -25 42 -56 72 -33 33 -50 56 -42 59 7 2 32 22
56 44 51 50 56 90 16 128 -24 22 -25 29 -23 101 3 72 2 79 -24 106 -33 35 -34
52 -3 52 14 0 28 5 31 10 3 6 16 10 28 10 33 1 57 24 57 54 l0 26 -350 0
c-331 0 -350 -1 -350 -18z m444 -73 c57 -20 126 -71 126 -93 0 -5 -8 -18 -17
-29 -17 -18 -17 -19 0 -28 23 -14 22 -39 -3 -39 -31 0 -27 -53 6 -79 15 -11
31 -18 37 -14 16 9 35 -24 29 -52 -2 -14 -17 -35 -32 -48 -73 -58 -70 -57
-170 -57 -81 0 -104 4 -142 23 -73 37 -108 69 -108 97 0 15 -4 30 -9 35 -5 6
-14 42 -19 80 -8 56 -7 76 5 100 15 33 102 105 126 105 9 0 19 5 22 10 10 17
85 11 149 -11z m-350 -321 c20 -39 21 -95 2 -114 -22 -21 -26 -18 -26 20 0 19
-4 37 -9 40 -16 11 -19 45 -4 65 18 27 19 27 37 -11z"/>
<path d="M272 518 c-7 -7 -12 -18 -12 -25 0 -7 -5 -13 -10 -13 -7 0 -10 -27
-8 -72 3 -69 4 -73 30 -82 18 -7 35 -6 53 2 23 11 25 16 25 85 0 64 -3 76 -23
95 -27 25 -38 27 -55 10z m46 -50 c17 -17 15 -48 -3 -48 -17 0 -39 36 -30 50
8 13 18 13 33 -2z"/>
<path d="M237 283 c-18 -17 -2 -23 62 -23 55 0 78 -5 112 -25 24 -14 50 -25
56 -25 25 0 123 53 123 66 0 22 -33 17 -74 -11 -39 -26 -61 -31 -71 -16 -14
24 -72 41 -135 41 -37 0 -70 -3 -73 -7z"/>
</g>
</svg>
